

<svg xmlns="http://www.w3.org/2000/svg" width="71" height="20" viewBox="0 0 71 20" fill="none">
  <path fill-rule="evenodd" clip-rule="evenodd" d="M71 2.00933C70.1294 2.6234 69.1656 3.09307 68.1455 3.40024C67.024 2.11073 65.2167 1.65852 63.6201 2.26792C62.0234 2.87732 60.9771 4.41869 61 6.12751V7.0366C57.7551 7.12074 54.6837 5.57476 52.8182 2.91842C52.8182 2.91842 49.1818 11.1002 57.3636 14.7366C55.4914 16.0075 53.2611 16.6447 51 16.5548C59.1818 21.1002 69.1818 16.5548 69.1818 6.10024C69.181 5.84701 69.1566 5.59442 69.1091 5.34569C70.0369 4.43069 70.6917 3.27543 71 2.00933Z" fill="white" />
  <!-- <path fill-rule="evenodd" clip-rule="evenodd" d="M11 0H8C5.23858 0 3 2.23858 3 5V8H0V12H3V20H7V12H10L11 8H7V5C7 4.44772 7.44772 4 8 4H11V0Z" fill="white"/> -->
</svg>